{"title":"Kinkyurishirabeshitsu (2014) Complete (Hardsubbed) BANKAI","uid":9917921,"size":1646921081,"categoryP":"video","categoryS":"tv_shows","magnet":"?xt=urn:btih:dab98b980bd4ca67bcda3f163796cb63b25cb968&amp;dn=Kinkyurishirabeshitsu+%282014%29+Complete+%28Hardsubbed%29+BANKAI&amp;tr=udp%3A%2F%2Ftracker.openbittorrent.com%3A80&amp;tr=udp%3A%2F%2Fopen.demonii.com%3A1337&amp;tr=udp%3A%2F%2Ftracker.coppersurfer.tk%3A6969&amp;tr=udp%3A%2F%2Fexodus.desync.com%3A6969","seeders":0,"leechers":1,"uploader":"8ankai","files":9,"time":1396967805,"description":"Kinkyu Torishirabeshitsu (2014)\n &lt;a href=&quot;\nhttp://i.imgur.com/JYHzDUQ.jpg&quot; rel=&quot;nofollow&quot; target=&quot;_NEW&quot;&gt;\nhttp://i.imgur.com/JYHzDUQ.jpg&lt;/a&gt;\n &lt;a href=&quot;\nhttp://i.imgur.com/g3kiAnM.jpg&quot; rel=&quot;nofollow&quot; target=&quot;_NEW&quot;&gt;\nhttp://i.imgur.com/g3kiAnM.jpg&lt;/a&gt;\n\n\nINFO:\nFormat : Renzoku\nGenre : Police\nEpisodes : 9\nBroadcast network : TV Asahi\nTheme song : Door by JUJU\nEncoder : BANKAI  \nSubtitle : ENGLISH HARDSUBBED\n\nRaws by furransu\nEnglish subtitles by amrayu (http://www.drama-otaku.com)\n\n\nCAST:\nAmami Yuki as Makabe Yukiko\nHayami Mokomichi as Watanabe Tetsuji\nTanaka Tetsushi as Kajiyama Katsutoshi\nDenden as Hishimoto Susumu\nOsugi Ren as Nakata Zenjiro\nKohinata Fumiyo as Koishikawa Haruo\nSuzuki Kosuke as Kenmotsu Daijiro\nKusakari Masao as Gouhara Masanao\nSasai Eisuke as Soma Kazunari\n\n\nSYNOPSIS:\nMakabe Yukiko worked her way up from a rookie officer to her current investigator level. Recently, she had just been transferred to the &quot;Emergency Interrogation Department&quot;, nicknamed as Kintori. Her colleagues are all men, and each of them have their own idiosyncrasies. Their job is to get the information from the suspects, and try to psycho-analyse them at the same time. Yukiko herself has an unsolved cold case that she is secretly investigating still... - TV Asahi\n\n\nVIDEO INFO:\nFormat : MPEG-4 \nFormat profile : Base Media \nCodec ID : isom \nFile size : 170 MiB \nDuration : 47mn 14s \nOverall bit rate mode : Variable \nOverall bit rate : 502 Kbps \n\nVideo \nFormat : AVC \nFormat/Info : Advanced Video Codec \nFormat profile : &lt;a class=&quot;__cf_email__&quot; href=&quot;/cdn-cgi/l/email-protection&quot; data-cfemail=&quot;bbf3d2dcd3fbf788958a&quot;&gt;[email&amp;#160;protected]&lt;/a&gt;&lt;script cf-hash='f9e31' type=&quot;text/javascript&quot;&gt;\n/* &lt;![CDATA[ */!function(){try{var t=&quot;currentScript&quot;in document?document.currentScript:function(){for(var t=document.getElementsByTagName(&quot;script&quot;),e=t.length;e--;)if(t[e].getAttribute(&quot;cf-hash&quot;))return t[e]}();if(t&amp;&amp;t.previousSibling){var e,r,n,i,c=t.previousSibling,a=c.getAttribute(&quot;data-cfemail&quot;);if(a){for(e=&quot;&quot;,r=parseInt(a.substr(0,2),16),n=2;a.length-n;n+=2)i=parseInt(a.substr(n,2),16)^r,e+=String.fromCharCode(i);e=document.createTextNode(e),c.parentNode.replaceChild(e,c)}}}catch(u){}}();/* ]]&gt; */&lt;/script&gt; \nFormat settings, CABAC : Yes \nFormat settings, ReFrames : 4 frames \nCodec ID : avc1 \nCodec ID/Info : Advanced Video Coding \nDuration : 47mn 14s \nBit rate : 306 Kbps \nMaximum bit rate : 1 773 Kbps \nWidth : 848 pixels \nHeight : 480 pixels \nDisplay aspect ratio : 16:9 \nFrame rate mode : Constant \nFrame rate : 29.970 fps \nColor space : YUV \nChroma subsampling : 4:2:0 \nBit depth : 8 bits \nScan type : Progressive \nBits/(Pixel*Frame) : 0.025 \nStream size : 103 MiB (61%) \n\nAudio  \nFormat : AAC \nFormat/Info : Advanced Audio Codec \nFormat profile : LC \nCodec ID : 40 \nDuration : 47mn 14s \nBit rate mode : Variable \nBit rate : 192 Kbps \nMaximum bit rate : 217 Kbps \nChannel(s) : 2 channels \nChannel positions : Front: L R \nSampling rate : 44.1 KHz \nCompression mode : Lossy \nStream size : 64.9 MiB (38%) \n\n\nSCREENSHOT: &lt;a href=&quot;\nhttp://i.imgur.com/m9RDXzu.jpg&quot; rel=&quot;nofollow&quot; target=&quot;_NEW&quot;&gt;\nhttp://i.imgur.com/m9RDXzu.jpg&lt;/a&gt;\n &lt;a href=&quot;\nhttp://i.imgur.com/ybXuGxf.jpg&quot; rel=&quot;nofollow&quot; target=&quot;_NEW&quot;&gt;\nhttp://i.imgur.com/ybXuGxf.jpg&lt;/a&gt;\n &lt;a href=&quot;\nhttp://i.imgur.com/lu78WBf.jpg&quot; rel=&quot;nofollow&quot; target=&quot;_NEW&quot;&gt;\nhttp://i.imgur.com/lu78WBf.jpg&lt;/a&gt;\n\nEnjoy &amp; Please Seed!!","torrent":{"xt":"urn:btih:dab98b980bd4ca67bcda3f163796cb63b25cb968","amp;dn":"Kinkyurishirabeshitsu+%282014%29+Complete+%28Hardsubbed%29+BANKAI","amp;tr":["udp%3A%2F%2Ftracker.openbittorrent.com%3A80","udp%3A%2F%2Fopen.demonii.com%3A1337","udp%3A%2F%2Ftracker.coppersurfer.tk%3A6969","udp%3A%2F%2Fexodus.desync.com%3A6969"],"infoHash":"dab98b980bd4ca67bcda3f163796cb63b25cb968","infoHashBuffer":{"type":"Buffer","data":[218,185,139,152,11,212,202,103,188,218,63,22,55,150,203,99,178,92,185,104]},"announce":[],"urlList":[]}}